<svg width="32" height="32" viewBox="0 0 32 32" fill="none" xmlns="http://www.w3.org/2000/svg">
  <!-- Background circle -->
  <circle cx="16" cy="16" r="15" fill="#1890ff" stroke="#ffffff" stroke-width="2"/>
  
  <!-- Medical cross -->
  <rect x="14" y="8" width="4" height="16" fill="#ffffff" rx="2"/>
  <rect x="8" y="14" width="16" height="4" fill="#ffffff" rx="2"/>
  
  <!-- Heart symbol -->
  <path d="M16 22C16 22 18 20 20 18C22 16 22 14 20 12C18 10 16 12 16 14C16 12 14 10 12 12C10 14 10 16 12 18C14 20 16 22 16 22Z" fill="#ff4d4f"/>
  
  <!-- Pulse lines -->
  <path d="M6 20L8 18L10 20L12 16L14 18L16 16L18 18L20 16L22 18L24 16L26 18" stroke="#ffffff" stroke-width="1.5" stroke-linecap="round" stroke-linejoin="round"/>
</svg> 